<svg  style="display: none;" xmlns="http://www.w3.org/2000/svg" xmlns:xlink="http://www.w3.org/1999/xlink">
    <symbol id="icon-github" viewbox="0 0 40 40">
        <title>GitHub logo</title>
        <desc>Link to {{ site.github }} profile on GitHub</desc>
        <path d="M26.36 22.618c-1.436 0-2.6 1.614-2.6 3.598 0 1.988 1.164 3.602 2.6 3.602s2.6-1.614 2.6-3.602c-0.002-1.984-1.164-3.598-2.6-3.598zM35.412 13.252c0.298-0.73 0.31-4.878-1.27-8.852 0 0-3.622 0.398-9.102 4.16-1.15-0.32-3.096-0.476-5.038-0.476-1.946 0-3.89 0.156-5.040 0.476-5.482-3.762-9.104-4.16-9.104-4.16-1.578 3.974-1.562 8.122-1.268 8.852-1.856 2.016-2.99 4.438-2.99 7.742 0 14.372 11.926 14.602 14.934 14.602 0.684 0 2.036 0.004 3.468 0.004 1.43 0 2.784-0.004 3.464-0.004 3.012 0 14.934-0.23 14.934-14.602 0-3.304-1.132-5.726-2.988-7.742zM20.056 33.83h-0.112c-7.542 0-13.418-0.898-13.418-8.23 0-1.758 0.62-3.386 2.094-4.738 2.454-2.254 6.61-1.062 11.324-1.062 0.020 0 0.040 0 0.058 0 0.020 0 0.036 0 0.054 0 4.714 0 8.872-1.192 11.328 1.062 1.47 1.352 2.090 2.98 2.090 4.738 0 7.332-5.874 8.23-13.418 8.23zM13.642 22.618c-1.436 0-2.6 1.614-2.6 3.598 0 1.988 1.164 3.602 2.6 3.602 1.438 0 2.602-1.614 2.602-3.602 0-1.984-1.164-3.598-2.602-3.598z"></path>
    </symbol>
    <symbol id="icon-link" viewBox="0 0 40 40">
        <title>link icon</title>
        <desc>Link to portfolio works</desc>
        <path d="M15.718 29.382l-1.62 1.61c-1.402 1.39-3.686 1.39-5.090 0-0.672-0.668-1.042-1.558-1.042-2.504s0.372-1.832 1.042-2.504l5.96-5.91c1.234-1.226 3.558-3.030 5.252-1.35 0.778 0.772 2.032 0.768 2.806-0.010 0.77-0.778 0.766-2.034-0.012-2.804-2.876-2.856-7.132-2.328-10.838 1.35l-5.96 5.912c-1.43 1.418-2.216 3.308-2.216 5.316 0 2.012 0.788 3.898 2.216 5.316 1.472 1.46 3.404 2.192 5.338 2.192s3.868-0.73 5.338-2.192l1.622-1.61c0.778-0.77 0.782-2.024 0.010-2.8-0.774-0.776-2.028-0.78-2.806-0.012zM33.782 6.414c-3.094-3.068-7.418-3.234-10.278-0.394l-2.018 2.004c-0.778 0.772-0.784 2.026-0.012 2.802 0.772 0.778 2.026 0.782 2.804 0.010l2.020-2.002c1.48-1.472 3.422-0.862 4.692 0.394 0.672 0.67 1.044 1.558 1.044 2.504s-0.372 1.834-1.044 2.502l-6.36 6.308c-2.908 2.882-4.272 1.532-4.854 0.954-0.778-0.772-2.032-0.766-2.802 0.010-0.772 0.778-0.768 2.034 0.010 2.802 1.336 1.324 2.86 1.98 4.456 1.98 1.954 0 4.020-0.984 5.986-2.934l6.36-6.306c1.424-1.42 2.214-3.308 2.214-5.316 0-2.010-0.79-3.898-2.218-5.318z"></path>
    </symbol>
    <symbol id="icon-download" viewBox="0 0 40 40">
        <title>download icon</title>
        <desc>Link to download portfolio piece</desc>
        <path d="M30 14h-6v-12h-8v12h-6l10 10 10-10zM38.676 27.064c-0.42-0.448-3.222-3.446-4.022-4.228-0.53-0.518-1.288-0.836-2.084-0.836h-3.514l6.128 5.988h-7.088c-0.204 0-0.388 0.104-0.48 0.266l-1.632 3.746h-11.968l-1.632-3.746c-0.092-0.162-0.278-0.266-0.48-0.266h-7.088l6.126-5.988h-3.512c-0.794 0-1.552 0.318-2.084 0.836-0.8 0.784-3.602 3.782-4.022 4.228-0.978 1.042-1.516 1.872-1.26 2.898l1.122 6.148c0.256 1.028 1.382 1.872 2.504 1.872h32.624c1.122 0 2.248-0.844 2.504-1.872l1.122-6.148c0.252-1.026-0.284-1.856-1.264-2.898z"></path> 
    </symbol>
</svg>