<svg  style="display: none;" xmlns="http://www.w3.org/2000/svg" xmlns:xlink="http://www.w3.org/1999/xlink">
    <symbol id="icon-github" viewbox="0 0 640 640">
        <title>GitHub logo</title>
        <desc></desc>
        <path d="M413.761 361.882c-22.976 0-41.6 25.824-41.6 57.568 0 31.808 18.624 57.632 41.6 57.632s41.6-25.824 41.6-57.632c-0.032-31.744-18.624-57.568-41.6-57.568zM558.593 212.026c4.768-11.68 4.96-78.048-20.32-141.632 0 0-57.952 6.368-145.632 66.56-18.4-5.12-49.536-7.616-80.608-7.616-31.136 0-62.24 2.496-80.64 7.616-87.712-60.192-145.664-66.56-145.664-66.56-25.248 63.584-24.992 129.952-20.288 141.632-29.696 32.256-47.84 71.008-47.84 123.872 0 229.952 190.816 233.632 238.944 233.632 10.944 0 32.576 0.064 55.488 0.064 22.88 0 44.544-0.064 55.424-0.064 48.192 0 238.944-3.68 238.944-233.632 0-52.864-18.112-91.616-47.808-123.872zM312.898 541.274h-1.792c-120.672 0-214.688-14.368-214.688-131.68 0-28.128 9.92-54.176 33.504-75.808 39.264-36.064 105.7 6-16.992 181.184-16.992 0.32 0 0.64 0 0.928 0 0.32 0 0.576 0 0.864 0 75.424 0 141.952-19.072 181.248 16.992 23.52 21.632 33.44 47.68 33.44 75.808 0 117.312-93.984 131.68-214.688 131.68zM210.273 361.882c-22.976 0-41.6 25.824-41.6 57.568 0 31.808 18.624 57.632 41.6 57.632 23.008 0 41.632-25.824 41.632-57.632 0-31.744-18.624-57.568-41.632-57.568z"></path>
    </symbol>
    <symbol id="icon-link" viewBox="0 0 640 640">
        <title>link icon</title>
        <desc></desc>
        <path d="M251.488 470.112l-25.92 25.76c-22.432 22.24-58.976 22.24-81.44 0-10.752-10.688-16.672-24.928-16.672-40.064s5.952-29.312 16.672-40.064l95.36-94.56c19.744-19.616 56.928-48.48 84.032-21.6 12.448 12.352 32.512 12.288 44.896-0.16 12.32-12.448 12.256-32.544-0.192-44.864-46.016-45.696-114.112-37.248-173.408 21.6l-95.36 94.592c-22.88 22.688-35.456 52.928-35.456 85.056 0 32.192 12.608 62.368 35.456 85.056 23.552 23.36 54.464 35.072 85.408 35.072s61.888-11.68 85.408-35.072l25.952-25.76c12.448-12.32 12.512-32.384 0.16-44.8-12.384-12.416-32.448-12.48-44.896-0.192zM540.512 102.624c-49.504-49.088-118.688-51.744-164.448-6.304l-32.288 32.064c-12.448 12.352-12.544 32.416-0.192 44.832 12.352 12.448 32.416 12.512 44.864 0.16l32.32-32.032c23.68-23.552 54.752-13.792 75.072 6.304 10.752 10.72 16.704 24.928 16.704 40.064s-5.952 29.344-16.704 40.032l-101.76 100.928c-46.528 46.112-68.352 24.512-77.664 15.264-12.448-12.352-32.512-12.256-44.832 0.16-12.352 12.448-12.288 32.544 0.16 44.832 21.376 21.184 45.76 31.68 71.296 31.68 31.264 0 64.32-15.744 95.776-46.944l101.76-100.896c22.784-22.72 35.424-52.928 35.424-85.056 0-32.16-12.64-62.368-35.488-85.088z"></path>
    </symbol>
    <symbol id="icon-download" viewBox="0 0 640 640">
        <title>download icon</title>
        <desc></desc>
        <path d="M480 224h-96v-192h-128v192h-96l160 160 160-160zM618.816 433.024c-6.72-7.168-51.552-55.136-64.352-67.648-8.48-8.288-20.608-13.376-33.344-13.376h-56.224l98.048 95.808h-113.408c-3.264 0-6.208 1.664-7.68 4.256l-26.112 59.936h-191.488l-26.112-59.936c-1.472-2.592-4.448-4.256-7.68-4.256h-113.408l98.016-95.808h-56.192c-12.704 0-24.832 5.088-33.344 13.376-12.8 12.544-57.632 60.512-64.352 67.648-15.648 16.672-24.256 29.952-20.16 46.368l17.952 98.368c4.096 16.448 22.112 29.952 40.064 29.952h521.984c17.952 0 35.968-13.504 40.064-29.952l17.952-98.368c4.032-16.416-4.544-29.696-20.224-46.368z"></path>
    </symbol>
</svg>